<svg width="372" height="372" viewBox="0 0 372 372" fill="none" xmlns="http://www.w3.org/2000/svg">
<circle cx="186" cy="186" r="186" fill="#F4F9FF"/>
<path fill-rule="evenodd" clip-rule="evenodd" d="M136.872 24.5572C118.472 28.3082 100.08 35.3502 86.8716 43.7005C67.0973 56.203 55.4072 79.3099 61.4039 94.0436C64.3402 101.26 71.8893 107.465 82.0324 111C88.4776 113.246 112.31 114.223 120.916 112.593C137.544 109.445 147.104 102.65 147.12 93.9678C147.127 90.3884 143.992 86.5595 141.052 86.5595C139.982 86.5595 137.6 88.0703 135.76 89.9164C133.919 91.7624 131.209 93.9588 129.738 94.797C124.999 97.4973 114.101 98.8085 100.153 98.3574C88.2252 97.9712 86.4391 97.6739 81.8326 95.3049C76.3639 92.4939 73.1243 88.1092 73.119 83.512C73.1127 78.9047 77.5311 70.8049 83.1568 65.107C89.6082 58.5729 103.694 50.2706 115.917 45.7961C141.097 36.5786 161.409 34.7385 183.692 39.6571L192.157 41.5251L194.184 38.8458C198.305 33.3964 195.162 27.5947 186.466 24.5981C184.692 23.9864 174.813 23.3178 164.514 23.1132C149.191 22.8069 144.168 23.0693 136.872 24.5572ZM213.391 36.6046C205.167 39.9185 199.414 43.9669 193.486 50.6138C185.124 59.9919 181.35 69.2333 175.686 94.1993C175.168 96.4794 173.146 101.027 171.19 104.304C167.277 110.863 166.66 115.199 169.266 117.838C171.897 120.502 176.069 119.903 179.695 116.341C184.084 112.028 185.823 107.799 189.559 92.3502C191.325 85.0487 193.753 76.7443 194.956 73.8944C199.306 63.5843 208.025 55.1053 219.41 50.1119C226.196 47.1362 229.162 44.2424 229.162 40.5981C229.162 34.8972 222.081 33.104 213.391 36.6046ZM156.242 43.2086C152.77 45.9298 153.593 50.4152 159.286 59.8073C166.283 71.3478 166.513 71.5913 170.417 71.5913C178.906 71.5913 176.819 58.2726 166.428 46.1363C162.281 41.2926 159.65 40.5362 156.242 43.2086ZM242.538 49.8684C230.464 54.6213 219.265 65.9542 213.305 79.4486C210.171 86.5465 210.036 87.2969 209.698 99.4541C209.433 108.957 209.709 113.681 210.813 118.532C217.163 146.429 238.38 162.808 261.104 157.354C266.727 156.005 269.289 153.373 269.289 148.945C269.289 143.393 267.133 142.441 254.553 142.441C244.72 142.441 243.371 142.213 239.096 139.828C230.306 134.928 222.894 120.683 222.205 107.371C221.333 90.5111 230.511 72.0433 243.3 64.9194C245.847 63.5015 248.675 63.1093 256.359 63.1093C267.954 63.1093 269.488 63.8068 278.206 73.0502C291.805 87.4666 294.809 89.124 297.354 83.6157C299.439 79.1043 299.052 77.2802 294.602 70.6563C289.271 62.7191 282.092 56.2099 273.747 51.7454C267.58 48.4464 266.33 48.1451 257.697 47.8766C249.79 47.6312 247.432 47.9415 242.538 49.8684ZM139.092 57.3805C134.555 59.9131 134.46 63.3618 138.805 67.7175C149.677 78.6154 153.269 85.2672 154.024 95.9006C154.576 103.684 153.149 109.583 149.626 114.073C139.658 126.776 120.341 126.373 74.8988 112.512C65.8258 109.744 55.5936 106.987 52.1605 106.384C35.2789 103.419 25.0342 109.801 20.5409 126.081C19.0955 131.317 18.8547 134.763 19.067 147.121C19.2881 159.97 19.5895 162.588 21.3747 167.175C24.8362 176.067 29.9822 178.69 35.0043 174.119L37.4662 171.878L34.6262 163.895C32.3319 157.445 31.713 154.092 31.4018 146.432C30.9176 134.527 32.084 129.478 36.5549 124.117C39.7383 120.3 40.3232 120.001 44.2957 120.163C46.6596 120.26 59.8291 123.497 73.5613 127.357C104.612 136.086 111.597 137.451 125.209 137.451C141.494 137.451 151.076 134.082 158.542 125.727C171.155 111.611 170.45 87.2879 156.836 66.8933C153.623 62.0805 148.3 57.6619 143.996 56.2359C143.01 55.9096 140.803 56.4245 139.092 57.3805ZM102.987 71.6911C91.8687 73.4683 84.7075 78.289 84.7075 83.9989C84.7075 87.8168 87.0045 90.551 90.211 90.551C91.4442 90.551 94.8238 89.5601 97.72 88.3477C102.441 86.3739 104.707 86.1404 119.568 86.1025C137.919 86.0556 139.101 85.6943 139.101 80.1251C139.101 75.3283 136.01 72.658 129.179 71.5534C122.367 70.4507 110.355 70.5146 102.987 71.6911ZM250.409 77.2582C239.777 86.8379 233.292 96.183 231.839 104.013C231.014 108.462 231.087 110.577 232.24 115.615C235.146 128.308 242.281 138.449 248.305 138.449C254.347 138.449 254.94 131.517 249.725 121.844C243.09 109.532 243.797 105.032 254.189 93.4189C260.874 85.9478 261.263 85.2712 261.263 81.144C261.263 77.1415 261.028 76.6845 258.456 75.6806C254.46 74.1219 253.73 74.2646 250.409 77.2582ZM268.11 92.5148C258.003 96.1292 251.54 103.888 252.729 110.98C253.538 115.804 258.882 120.768 266.204 123.494C276.089 127.176 277.887 130.791 277.129 145.45C276.804 151.744 276.265 154.085 274.423 157.199C270.74 163.426 267.042 164.893 255.022 164.893C243.013 164.893 237.741 163.257 223.366 155.07C216.029 150.891 213.157 148.527 207.156 141.725C203.145 137.179 199.122 133.46 198.215 133.46C197.308 133.46 195.629 134.194 194.483 135.093C192.667 136.516 192.452 137.345 192.812 141.537C193.318 147.423 196.018 151.644 203.597 158.394C210.566 164.6 225.578 173.358 235.404 176.952C242.073 179.389 244.376 179.728 254.576 179.764C264.697 179.798 266.833 179.508 271.412 177.466C277.454 174.774 282.767 169.8 286.381 163.45C288.306 160.068 288.906 159.518 288.906 161.134C288.906 164.038 291.225 166.39 294.09 166.39C297.319 166.39 305.102 160.219 308.212 155.192C310.573 151.377 310.753 150.41 310.753 141.525C310.753 133.05 310.466 131.309 308.231 126.217C304.317 117.296 297.704 112.637 294.325 116.419C291.131 119.993 291.078 123.056 294.116 128.525C298.156 135.796 299.131 140.659 297.38 144.789C296.605 146.616 294.683 149.508 293.107 151.213L290.244 154.316L290.224 141.642C290.205 129.902 290.031 128.602 287.855 123.98C284.442 116.733 281.12 113.689 273.778 111.084L267.345 108.801L271.215 107.037C276.879 104.454 286.026 103.916 291.134 105.863C297.028 108.111 309.057 117.318 314.476 123.731C316.994 126.709 320.339 132.026 321.91 135.544C325.523 143.633 327.817 146.432 330.833 146.432C336.812 146.432 337.959 137.795 333.352 127.477C327.994 115.476 307.209 95.8527 295.866 92.0828C289.305 89.9024 274.783 90.1279 268.11 92.5148ZM193.232 111.577C190.959 113.263 186.38 118.247 183.058 122.652C173.932 134.754 170.655 136.399 151.585 138.449C134.116 140.328 128.744 142.464 115.004 152.995C101.952 162.998 97.8538 164.396 75.7905 166.381C53.0273 168.428 47.7038 170.078 41.5975 176.981C35.3868 184.005 33.0488 192.273 34.8696 200.773C38.563 218.013 73.3909 235.245 79.3519 222.781C81.961 217.325 78.4531 213.204 70.0292 211.83C57.0015 209.706 46.5847 200.707 47.9437 192.751C48.5019 189.482 53.5979 184.667 57.8567 183.384C59.7765 182.805 68.7817 181.681 77.8681 180.885C103.162 178.671 108.886 176.632 123.821 164.516C133.375 156.764 138.108 154.848 151.192 153.435C164.625 151.985 174.109 149.841 178.737 147.21C183.382 144.569 206.87 118.247 206.87 115.683C206.87 114.631 206.038 112.588 205.021 111.142C202.472 107.515 198.517 107.661 193.232 111.577ZM46.0176 129.001C43.9569 131.307 43.3185 137.116 44.4063 143.661C46.4875 156.183 52.1373 160.859 65.0901 160.781C76.1463 160.714 97.2786 155.347 100.981 151.666C103.062 149.597 102.952 146.288 100.693 143.074C98.3246 139.704 95.3169 139.683 82.9241 142.948C77.7745 144.305 70.953 145.697 67.7652 146.041C60.3124 146.845 58.3462 145.28 57.0559 137.51C55.7969 129.927 54.174 127.473 50.4199 127.473C48.7498 127.473 46.7684 128.16 46.0176 129.001ZM316.946 156.915C314.521 158.29 307.922 164.205 302.282 170.058C284.683 188.322 277.796 192.044 263.546 190.993C259.103 190.665 252.697 190.093 249.311 189.72C242.152 188.933 240.754 190.04 240.754 196.497C240.754 199.864 241.12 200.485 244.098 202.17C254.605 208.118 276.882 207.626 288.265 201.195C293.905 198.009 299.964 192.86 309.861 182.843C322.769 169.78 323.302 169.384 327.979 169.384C331.663 169.384 332.418 169.829 336.211 174.231C342.399 181.416 343.981 191.162 340.078 198.06C338.61 200.655 333.489 203.736 329.075 204.68C322.088 206.174 319.145 214.639 324.529 217.755C330.655 221.3 340.072 218.448 347.698 210.737C353.169 205.206 354 202.259 354 188.387V176.259L350.506 170.502C343.655 159.21 336.782 154.473 327.201 154.437C322.706 154.42 320.339 154.992 316.946 156.915ZM153.948 161.845C152.402 163.736 149.734 167.177 148.018 169.494C145.521 172.863 142.488 174.988 132.859 180.107C95.4649 199.99 90.5329 203.483 86.3678 213.04C83.5572 219.489 83.6196 230.262 86.5176 238.729C90.5829 250.606 102.371 260.223 119.147 265.346C128.937 268.336 148.722 268.562 156.327 265.771C163.281 263.218 169.437 256.932 173.071 248.672C175.791 242.489 175.912 241.657 176.658 224.04C177.861 195.634 178.052 194.172 181.087 190.053C184.245 185.765 190.588 182.238 199.994 179.542C208.88 176.994 211.328 175.226 211.328 171.356C211.328 166.309 208.679 164.391 201.743 164.415C191.089 164.452 178.855 170.686 171.202 179.977C165.072 187.419 164.751 189.008 164.131 214.905L163.579 237.974L160.899 242.827C157.197 249.524 153.772 251.859 146.433 252.685C140.206 253.384 125.334 251.97 119.053 250.08C110.946 247.641 102.004 240.833 99.342 235.074C97.8859 231.924 97.4828 224.988 98.5359 221.2C100.576 213.856 103.508 211.675 127.883 199.356C147.182 189.603 156.822 183.014 160.234 177.244C167.195 165.473 161.794 152.242 153.948 161.845ZM308.034 191.583C296.349 204.881 291.581 211.823 291.581 215.542C291.581 218.849 294.782 221.894 300.619 224.141C308.664 227.24 311.059 229.03 313.076 233.455C316.73 241.469 314.962 251.275 309.149 255.241C301.585 260.402 293.706 255.889 274.499 235.389C261.971 222.02 259.939 220.276 256.886 220.276C254.94 220.276 252.347 224.738 252.347 228.089C252.347 232.167 271.975 254.63 282.789 262.927C297.578 274.273 309.626 275.147 319.15 265.564C324.151 260.532 327.029 253.863 327.811 245.49C329.005 232.701 324.674 221.847 315.901 215.642C313.069 213.64 310.574 211.829 310.357 211.62C310.139 211.411 312.401 208.446 315.382 205.031C323.952 195.216 327.249 189.78 327.249 185.472C327.249 180.83 325.977 179.363 321.943 179.359C319.072 179.356 317.777 180.494 308.034 191.583ZM210.663 183.755C196.218 189.028 183.217 208.031 180.906 227.25C180.354 231.836 180.082 240.339 180.303 246.144C180.92 262.422 183.892 268.211 197.507 279.648C208.998 289.301 209.434 290.009 214.421 307.091C220.203 326.898 227.572 339.176 236.742 344.277C243.272 347.91 252.81 350 262.861 350C270.279 350 271.923 349.709 273.163 348.175C276.273 344.33 274.838 336.644 267.99 320.471C261.847 305.958 258.572 303.492 254.028 309.958C251.655 313.334 252.151 316.97 256.325 326.807C258.061 330.896 259.48 334.482 259.48 334.776C259.48 335.071 257.303 335.06 254.643 334.752C240.647 333.136 232.183 322.885 226.449 300.605C221.898 282.922 219.2 278.665 205.83 268.056C200.906 264.149 196.471 259.813 195.706 258.156C191.518 249.093 192.166 229.203 197.027 217.558C202.268 205.007 213.122 195.855 219.829 198.333C225.104 200.281 228.834 206.699 230.873 217.335C231.437 220.279 232.549 223.493 233.344 224.476C235.3 226.895 239.445 226.731 241.758 224.142C246.093 219.291 241.764 201.002 234.004 191.391C227.831 183.744 218.792 180.787 210.663 183.755ZM144.005 195.406C139.591 199.274 132.659 205.364 128.6 208.94C118.604 217.746 113.948 224.73 113.432 231.694C113.065 236.641 113.248 237.241 116.251 240.962C121.925 247.99 137.166 253.703 142.647 250.856C145.521 249.363 146.886 245.122 145.549 241.838C144.807 240.016 143.189 238.927 139.37 237.676C130.331 234.715 127.963 233.519 127.648 231.759C127.232 229.426 131.675 224.459 141.776 215.965C155.22 204.661 161.393 197.555 161.393 193.383C161.393 191.166 157.762 188.343 154.929 188.358C152.704 188.37 150.167 190.007 144.005 195.406ZM212.105 209.806C208.354 212.088 206.605 218.28 206.175 230.81C205.836 240.682 206.034 242.607 208.053 249.105C211.221 259.3 215.181 266.326 222.921 275.484C236.563 291.628 252.015 300.069 267.951 300.081C275.366 300.087 281.836 297.194 285.599 292.189C288.57 288.237 289.244 285.43 288.711 279.224C288.072 271.783 285.643 268.923 275.022 263.104C265.606 257.945 262.065 254.757 252.113 242.478C248.356 237.843 247.459 237.239 244.342 237.239C241.77 237.239 240.568 237.761 239.894 239.169C237.683 243.792 239.414 248.366 247.173 258.411C252.646 265.495 258.666 270.5 267.922 275.658C271.861 277.853 275.203 280.372 275.349 281.256C275.773 283.832 270.976 285.413 264.064 284.976C248.214 283.974 227.246 264.553 220.606 244.724C218.839 239.449 218.583 231.432 219.791 219.138C220.375 213.181 220.251 212.298 218.56 210.406C216.371 207.957 215.309 207.858 212.105 209.806ZM273.725 216.848C271.76 222.632 272.329 223.611 284.514 235.42C290.926 241.635 297.605 247.955 299.359 249.464C305.042 254.356 309.409 252.376 309.422 244.902C309.429 240.957 309.011 240.285 301.644 232.423C286.727 216.503 275.895 210.46 273.725 216.848Z" fill="#0047A2"/>
</svg>
